<svg xmlns="http://www.w3.org/2000/svg" viewBox="0 0 32 32" fill="none">
  <rect width="32" height="32" rx="8" fill="url(#g)"/>
  <path stroke="#fff" stroke-linecap="round" stroke-linejoin="round" stroke-width="2.2"
        d="M10.5 17.5 9 22l-1.5-4.5a4 4 0 0 0-2.75-2.75L.5 13.5l4.25-1.25A4 4 0 0 0 7.5 9.5L9 5l1.5 4.5a4 4 0 0 0 2.75 2.75L17.5 13.5l-4.25 1.25a4 4 0 0 0-2.75 2.75Z"/>
  <path stroke="#fff" stroke-linecap="round" stroke-linejoin="round" stroke-width="1.6" opacity=".7"
        d="M22 10.5 21 13l-1-2.5a2.5 2.5 0 0 0-1.5-1.5L16 8l2.5-1a2.5 2.5 0 0 0 1.5-1.5L21 3l1 2.5a2.5 2.5 0 0 0 1.5 1.5L26 8l-2.5 1a2.5 2.5 0 0 0-1.5 1.5Z"/>
  <defs>
    <linearGradient id="g" x1="0" y1="0" x2="32" y2="32" gradientUnits="userSpaceOnUse">
      <stop stop-color="#7c3aed"/>
      <stop offset="1" stop-color="#db2777"/>
    </linearGradient>
  </defs>
</svg>
